<?xml version="1.0" encoding="utf-8"?>
<!-- Generator: Adobe Illustrator 18.1.1, SVG Export Plug-In . SVG Version: 6.00 Build 0)  -->
<svg version="1.1"
	 id="svg3070" sodipodi:docname="New document 4" inkscape:version="0.48.0 r9654" xmlns:dc="http://purl.org/dc/elements/1.1/" xmlns:inkscape="http://www.inkscape.org/namespaces/inkscape" xmlns:cc="http://creativecommons.org/ns#" xmlns:svg="http://www.w3.org/2000/svg" xmlns:rdf="http://www.w3.org/1999/02/22-rdf-syntax-ns#" xmlns:sodipodi="http://sodipodi.sourceforge.net/DTD/sodipodi-0.dtd"
	 xmlns="http://www.w3.org/2000/svg" xmlns:xlink="http://www.w3.org/1999/xlink" x="0px" y="0px" viewBox="-134 441.5 291 79.5"
	 enable-background="new -134 441.5 291 79.5" xml:space="preserve">
<sodipodi:namedview  inkscape:window-maximized="1" inkscape:window-y="-8" inkscape:window-x="-8" inkscape:window-height="750" inkscape:window-width="1280" fit-margin-bottom="0" inkscape:current-layer="layer1" inkscape:pageshadow="2" inkscape:document-units="px" inkscape:pageopacity="0.0" fit-margin-right="0" inkscape:cx="142.93233" fit-margin-left="0" borderopacity="1.0" fit-margin-top="0" pagecolor="#ffffff" bordercolor="#666666" showgrid="false" inkscape:cy="33.703355" inkscape:zoom="2.8" id="base">
	</sodipodi:namedview>
<g id="g3019" transform="matrix(1.018827,0,0,-1.018827,170.5996,498.03288)">
	<path id="path14" inkscape:connector-curvature="0" fill="#006699" d="M-89,48.3c0,3,2.5,5.4,5.5,5.4h63.4c3,0,5.5-2.4,5.5-5.4
		v-64.1c0-3-2.5-5.4-5.5-5.4h-63.4c-3,0-5.5,2.4-5.5,5.4V48.3z"/>
	<path id="path16" inkscape:connector-curvature="0" d="M-297.2-9h31V1.2H-286v38.9h-11.2C-297.2,40.1-297.2-9-297.2-9z"/>
	<path id="path18" inkscape:connector-curvature="0" d="M-250.5-9v33.8h-11.2V-9H-250.5z M-256.1,29.4c3.9,0,6.4,2.6,6.4,5.8
		c-0.1,3.3-2.4,5.8-6.3,5.8c-3.8,0-6.4-2.5-6.4-5.8C-262.4,32-259.9,29.4-256.1,29.4L-256.1,29.4L-256.1,29.4z"/>
	<path id="path20" inkscape:connector-curvature="0" d="M-245.3-9h11.2V9.9c0,1,0.1,2,0.4,2.7c0.8,2,2.7,4.1,5.8,4.1
		c4.1,0,5.7-3.1,5.7-7.6V-9h11.2v19.4c0,10.4-5.5,15.2-12.9,15.2c-6.1,0-8.7-3.4-10.2-5.7h0.1v4.9h-11.2
		C-245.1,21.6-245.3-9-245.3-9L-245.3-9z"/>
	<path id="path22" inkscape:connector-curvature="0" d="M-195.1,40.1h-11.2V-9h11.2V2l2.8,3.5l8.8-14.5h13.8l-14.8,21l12.9,14.3
		h-13.5c0,0-9.2-12.8-10-14.3L-195.1,40.1L-195.1,40.1z"/>
	<path id="path24" inkscape:connector-curvature="0" d="M-139.7,5.1c0.1,0.9,0.4,2.5,0.4,4.4c0,8.7-4.4,17.6-16.1,17.6
		c-12.5,0-18.3-9.9-18.3-18.8c0-11.1,7-18,19.3-18c4.9,0,9.4,0.7,13.1,2.2l-1.5,7.4c-3-1-6.1-1.5-10-1.5c-5.2,0-9.8,2.2-10.2,6.7
		L-139.7,5.1L-139.7,5.1z M-163,12.7c0.3,2.9,2.2,7.1,7,7.1c5.1,0,6.3-4.5,6.3-7.1H-163z"/>
	<path id="path26" inkscape:connector-curvature="0" d="M-111.6,40.1v-17h-0.1c-1.6,2.4-5,4-9.5,4c-8.6,0-16.3-6.9-16.2-18.7
		c0-11,6.9-18.1,15.4-18.1c4.7,0,9.1,2,11.3,5.9h0.2L-110-9h10c-0.1,2.4-0.3,6.5-0.3,10.5v38.5H-111.6L-111.6,40.1z M-111.6,6.7
		c0-0.9-0.1-1.7-0.2-2.5c-0.7-3.1-3.3-5.3-6.6-5.3c-4.7,0-7.7,3.7-7.7,9.7c0,5.5,2.6,10,7.8,10c3.5,0,5.9-2.4,6.6-5.3
		c0.1-0.7,0.1-1.4,0.1-2L-111.6,6.7L-111.6,6.7z"/>
	<path id="path28" inkscape:connector-curvature="0" fill="#FFFFFF" d="M-66.5-8.9v33.8h-11.2V-8.9H-66.5z M-72.1,29.5
		c3.9,0,6.4,2.6,6.4,5.8c-0.1,3.3-2.4,5.8-6.3,5.8c-3.8,0-6.4-2.5-6.4-5.8C-78.4,32.1-76,29.5-72.1,29.5L-72.1,29.5L-72.1,29.5z"/>
	<path id="path30" inkscape:connector-curvature="0" fill="#FFFFFF" d="M-60.3-8.9H-49V9.9c0,1,0.1,2,0.4,2.7c0.8,2,2.7,4.1,5.8,4.1
		c4.1,0,5.7-3.1,5.7-7.6V-8.9H-26v19.4c0,10.4-5.5,15.2-12.9,15.2c-6.1,0-8.7-3.4-10.2-5.7h0.1v4.9h-11.2
		C-60.1,21.7-60.3-8.9-60.3-8.9L-60.3-8.9z"/>
</g>
</svg>
