<?xml version="1.0" encoding="utf-8"?>
<!-- Generator: Adobe Illustrator 18.1.1, SVG Export Plug-In . SVG Version: 6.00 Build 0)  -->
<svg version="1.1"
	 id="svg3070" sodipodi:docname="New document 4" inkscape:version="0.48.0 r9654" xmlns:dc="http://purl.org/dc/elements/1.1/" xmlns:inkscape="http://www.inkscape.org/namespaces/inkscape" xmlns:cc="http://creativecommons.org/ns#" xmlns:svg="http://www.w3.org/2000/svg" xmlns:rdf="http://www.w3.org/1999/02/22-rdf-syntax-ns#" xmlns:sodipodi="http://sodipodi.sourceforge.net/DTD/sodipodi-0.dtd"
	 xmlns="http://www.w3.org/2000/svg" xmlns:xlink="http://www.w3.org/1999/xlink" x="0px" y="0px" viewBox="-134 441.5 291 79.5"
	 enable-background="new -134 441.5 291 79.5" xml:space="preserve">
<sodipodi:namedview  inkscape:window-maximized="1" inkscape:window-y="-8" inkscape:window-x="-8" inkscape:window-height="750" inkscape:window-width="1280" fit-margin-bottom="0" inkscape:current-layer="layer1" inkscape:pageshadow="2" inkscape:document-units="px" inkscape:pageopacity="0.0" fit-margin-right="0" inkscape:cx="142.93233" fit-margin-left="0" borderopacity="1.0" fit-margin-top="0" pagecolor="#ffffff" bordercolor="#666666" showgrid="false" inkscape:cy="33.703355" inkscape:zoom="2.8" id="base">
	</sodipodi:namedview>
<polygon fill="#3A5B98" points="-40.9,447.6 -27.6,447.6 -27.6,451 -37,451 -37,456.3 -29.3,456.3 -29.3,459.7 -37,459.7 -37,467.7 
	-40.9,467.7 "/>
<path fill="#3A5B98" d="M-23,450.2c-1.5,0-2.3-0.9-2.3-2.3c0-1.4,0.8-2.3,2.3-2.3c1.5,0,2.3,0.9,2.3,2.3
	C-20.6,449.3-21.5,450.2-23,450.2 M-24.9,467.7V453l3.8-0.5v15.3H-24.9z"/>
<path fill="#3A5B98" d="M-7.8,467.7v-9c0-2.2-0.9-2.9-2.6-2.9c-1.3,0-2.5,0.7-3.3,1.4v10.6h-3.8V453l3.8-0.5v2.3
	c1.3-1.4,3.1-2.4,4.9-2.4c3,0,4.8,1.9,4.8,5.1v10.2H-7.8z"/>
<path fill="#3A5B98" d="M9.4,446.2l3.8-0.5v22H9.4v-1.4c-1,1-2.3,1.9-4.2,1.9c-3.9,0-6.5-3.2-6.5-7.8c0-4.7,3.3-8,7.5-8
	c1.1,0,2.2,0.2,3.2,0.5V446.2z M6.6,455.4c-2.5,0-4,2.1-4,4.8c0,2.9,1.4,4.7,3.7,4.7c1.3,0,2.2-0.4,3.1-1.2v-7.5
	C8.6,455.7,7.7,455.4,6.6,455.4"/>
<path fill="#3A5B98" d="M28.2,452.9v9c0,2.2,0.9,2.9,2.5,2.9c1.3,0,2.5-0.6,3.2-1.3v-10.6h3.8v14.7l-3.8,0.5v-2.2
	c-1.2,1.3-3,2.3-4.9,2.3c-2.9,0-4.7-1.9-4.7-5.1v-10.2H28.2z"/>
<path fill="#3A5B98" d="M46.2,468.2c-1.9,0-4.3-0.5-5.8-1.4l0.8-3c1.5,0.8,3.4,1.4,5,1.4c1.5,0,2.4-0.6,2.4-1.6c0-1.2-1.3-1.6-3-2
	c-2.8-0.6-5-1.8-5-4.6s2.3-4.6,5.9-4.6c1.8,0,4,0.5,5.4,1.2l-0.8,3c-1.4-0.7-3.3-1.2-4.7-1.2c-1.4,0-2.2,0.5-2.2,1.5
	c0,1.1,1.3,1.5,3,1.9c2.8,0.7,5,1.8,5,4.7C52.4,466.2,50,468.2,46.2,468.2"/>
<path fill="#3A5B98" d="M69.4,468.2c-4.3,0-7.5-3-7.5-7.9c0-4.9,3.3-7.9,7.7-7.9c4.4,0,7.5,3,7.5,7.9
	C77.1,465.1,73.8,468.2,69.4,468.2 M69.5,455.4c-2.5,0-3.8,2-3.8,4.9c0,2.8,1.4,4.8,3.9,4.8c2.4,0,3.8-1.9,3.8-4.8
	C73.3,457.5,71.9,455.4,69.5,455.4"/>
<path fill="#3A5B98" d="M89.6,467.7v-9c0-2.2-0.9-2.9-2.6-2.9c-1.3,0-2.5,0.7-3.3,1.4v10.6h-3.8V453l3.8-0.5v2.3
	c1.3-1.4,3.1-2.4,4.9-2.4c3,0,4.8,1.9,4.8,5.1v10.2H89.6z"/>
<polygon fill="#3A5B98" points="-40.9,481.1 -19.8,481.1 -19.8,486.5 -34.8,486.5 -34.8,494.9 -22.6,494.9 -22.6,500.2 -34.8,500.2 
	-34.8,512.9 -40.9,512.9 "/>
<path fill="#3A5B98" d="M-5.1,510.2c-1.7,2-3.7,3.5-6.6,3.5c-4.2,0-7.3-2.9-7.3-6.6c0-4.3,3.2-8,13.9-8.3v-0.6
	c0-3.2-1.3-4.5-4.7-4.5c-2.4,0-5.3,1.1-7.8,2.5l-1.2-4.7c2.3-1.4,5.9-2.7,9.8-2.7c7.2,0,10,3.2,9.9,9.7v8.4c0,1.8,0.3,2,2.1,2.1
	l-0.5,4.5c-4.5,0.5-6.6-0.9-7.4-3.2H-5.1z M-5.1,501.9c-5.8,0.7-8,1.9-8,4.4c0,1.8,1.4,3.1,3.5,3.1c1.9,0,3.4-0.9,4.5-2V501.9z"/>
<path fill="#3A5B98" d="M16.9,513.7c-7.6,0-12.2-4.7-12.2-12.4c0-7.6,5-12.6,12.4-12.6c3.2,0,6,0.7,8.1,2l-1.3,4.8
	c-1.9-1.2-4.2-1.9-6.4-1.9c-4.3,0-6.7,2.9-6.7,7.5c0,4.8,2.7,7.6,6.7,7.6c2.4,0,4.7-0.7,6.5-1.8l1,4.9
	C23,512.9,20.1,513.7,16.9,513.7"/>
<path fill="#3A5B98" d="M33.1,502.5c0.3,3.8,2.8,6.4,7,6.4c2.5,0,5.2-0.8,7.3-2.1l0.8,5c-2.2,1.2-5.3,1.9-8.5,1.9
	c-7.5,0-12.5-4.8-12.5-12.3c0-7.6,5.1-12.7,12.1-12.7c6.2,0,9.7,3.8,9.7,9.5c0,1.3-0.2,2.9-0.5,3.9c0,0-15.4,0.2-15.4,0.2V502.5z
	 M43.3,498.8v-0.4c0-3.2-1.4-5.1-4.5-5.1c-3.3,0-5.3,2.7-5.6,5.6L43.3,498.8z"/>
<path fill="#3A5B98" d="M64.2,513.6c-1.5,0-3.7-0.3-5.2-0.8l-5.7,0.9v-34.7l6-0.8v13.6c1.6-1.5,3.7-3,6.6-3c6.2,0,10.3,5,10.3,12.3
	C76.1,508.4,70.9,513.6,64.2,513.6 M64.1,493.7c-2,0-3.5,0.8-4.8,1.9v11.8c1.1,0.9,2.6,1.3,4.4,1.3c4,0,6.3-3.3,6.3-7.6
	C70,496.6,67.8,493.7,64.1,493.7"/>
<path fill="#3A5B98" d="M90.8,513.7c-6.9,0-11.8-4.7-11.8-12.5c0-7.7,5.2-12.6,12.2-12.6c6.9,0,11.8,4.8,11.8,12.5
	C102.9,508.8,97.6,513.7,90.8,513.7 M90.9,493.5c-3.9,0-6.1,3.2-6.1,7.7c0,4.5,2.2,7.6,6.2,7.6c3.9,0,6-3,6-7.6
	C97,496.7,94.7,493.5,90.9,493.5"/>
<path fill="#3A5B98" d="M117.7,513.7c-6.9,0-11.8-4.7-11.8-12.5c0-7.7,5.2-12.6,12.2-12.6c6.9,0,11.8,4.8,11.8,12.5
	C129.8,508.8,124.6,513.7,117.7,513.7 M117.8,493.5c-3.9,0-6.1,3.2-6.1,7.7c0,4.5,2.2,7.6,6.2,7.6c3.9,0,6-3,6-7.6
	C123.9,496.7,121.7,493.5,117.8,493.5"/>
<polygon fill="#3A5B98" points="140,501.6 140,512.9 134,512.9 134,478.9 140,478.1 140,499.9 140.1,499.9 148.5,489.4 155.6,489.4 
	145.9,500.6 155.7,512.9 148.5,512.9 140.1,501.6 "/>
<path fill="#3D5A98" d="M-62.8,442.5h-66.1c-2.3,0-4.1,1.8-4.1,4.1v66.1c0,2.3,1.8,4.1,4.1,4.1h66.1c2.3,0,4.1-1.8,4.1-4.1v-66.1
	C-58.7,444.4-60.5,442.5-62.8,442.5"/>
<path fill="#FFFFFF" d="M-72.1,488.1l1.4-11.2h-11.1v-7.2c0-3.2,0.9-5.5,5.6-5.5l5.9,0v-10c-1-0.1-4.6-0.4-8.7-0.4
	c-8.6,0-14.4,5.2-14.4,14.8v8.3h-9.7v11.2h9.7v28.8h11.6v-28.8H-72.1z"/>
</svg>
