<?xml version="1.0" encoding="utf-8"?>
<!-- Generator: Adobe Illustrator 18.1.1, SVG Export Plug-In . SVG Version: 6.00 Build 0)  -->
<svg version="1.1"
	 id="svg3070" sodipodi:docname="New document 4" inkscape:version="0.48.0 r9654" xmlns:dc="http://purl.org/dc/elements/1.1/" xmlns:inkscape="http://www.inkscape.org/namespaces/inkscape" xmlns:cc="http://creativecommons.org/ns#" xmlns:svg="http://www.w3.org/2000/svg" xmlns:rdf="http://www.w3.org/1999/02/22-rdf-syntax-ns#" xmlns:sodipodi="http://sodipodi.sourceforge.net/DTD/sodipodi-0.dtd"
	 xmlns="http://www.w3.org/2000/svg" xmlns:xlink="http://www.w3.org/1999/xlink" x="0px" y="0px" viewBox="-134 441.5 291 79.5"
	 enable-background="new -134 441.5 291 79.5" xml:space="preserve">
<sodipodi:namedview  inkscape:window-maximized="1" inkscape:window-y="-8" inkscape:window-x="-8" inkscape:window-height="750" inkscape:window-width="1280" fit-margin-bottom="0" inkscape:current-layer="layer1" inkscape:pageshadow="2" inkscape:document-units="px" inkscape:pageopacity="0.0" fit-margin-right="0" inkscape:cx="142.93233" fit-margin-left="0" borderopacity="1.0" fit-margin-top="0" pagecolor="#ffffff" bordercolor="#666666" showgrid="false" inkscape:cy="33.703355" inkscape:zoom="2.8" id="base">
	</sodipodi:namedview>
<path fill-rule="evenodd" clip-rule="evenodd" fill="#00ADEE" d="M-92.4,473.5c2.6-8.2,5.8-13.5,9.5-17.3c2.8-2.9,4.2-3.8,2.6-0.6
	c0.7-0.6,1.7-1.3,2.5-1.7c4.5-2.1,4.1-0.3,1.1,1.6c8.4-3,8.1,0.8-0.8,2.7c7.3,0.1,15,4.8,17.2,14.6c0.3,1.4-0.1,1.2,1.3,1.5
	c3,0.5,5.8,0.5,8.6-0.4c-0.3,2-3,3.4-7.2,4.2c-1.6,0.3-1.9,0.2,0,0.7c2.3,0.5,4.8,0.6,7.6,0.5c-2.1,2.4-5.5,3.7-9.6,3.7
	c-2.6,9.5-8.5,16.3-16.1,20.6c-17.7,10-43.4,8.6-56.3-9.6c8.5,6.6,21,8.1,30.3-1.2c-6.1,0-7.7-4.6-2.8-7c-4.6,0-7.5-1.5-9.2-4.1
	c-0.6-1-0.7-1.1,0.4-1.8c1.2-0.8,2.7-1.2,4.4-1.3c-4.7-1.4-7.6-3.8-8.6-7.2c-0.3-1.1-0.4-1,0.7-1.3c1.1-0.3,2.5-0.4,3.8-0.5
	c-3.7-2.3-5.9-5-6.5-8.1c-0.5-2.9,0-2.1,2.2-1.3C-107.8,463.7-98.1,467.7-92.4,473.5L-92.4,473.5z"/>
<g>
	<path fill="#00ADEE" d="M-25.4,500.9c-8.9,0-16.1-7.2-16.1-16.1l0.1-18.5c0-2.5,2.1-4.6,4.6-4.6c2.5,0,4.6,2.1,4.6,4.6v6.9h11.5
		c2.5,0,4.6,2.1,4.6,4.6c0,2.5-2.1,4.6-4.6,4.6h-11.5v2.3c0,3.8,3.1,6.9,6.9,6.9h6.9c2.5,0,4.6,2.1,4.6,4.6c0,2.5-2.1,4.6-4.6,4.6
		H-25.4z"/>
	<path fill="#00ADEE" d="M65.7,500.9c-8.9,0-16.1-7.2-16.1-16.1v-18.5c0-2.5,2.1-4.6,4.6-4.6c2.5,0,4.6,2.1,4.6,4.6v6.9h6.9
		c2.5,0,4.6,2.1,4.6,4.6c0,2.5-2.1,4.6-4.6,4.6h-6.9v2.3c0,3.8,3.1,6.9,6.9,6.9h2.3c2.5,0,4.6,2.1,4.6,4.6c0,2.5-2.1,4.6-4.6,4.6
		H65.7z"/>
	<path fill="#00ADEE" d="M89.9,500.9c-8.9,0-16.1-7.2-16.1-16.1v-18.5c0-2.5,2.1-4.6,4.6-4.6c2.5,0,4.6,2.1,4.6,4.6v6.9H90
		c2.5,0,4.6,2.1,4.6,4.6c0,2.5-2.1,4.6-4.6,4.6h-6.9v2.3c0,3.8,3.1,6.9,6.9,6.9h2.3c2.5,0,4.6,2.1,4.6,4.6c0,2.5-2.1,4.6-4.6,4.6
		H89.9z"/>
	<path fill="#00ADEE" d="M129.2,487c0-7.6,6.1-13.8,13.8-13.8h6.9c2.5,0,4.6,2.1,4.6,4.6c0,2.5-2.1,4.6-4.6,4.6H143
		c-2.5,0-4.6,2.1-4.6,4.6l0.1,9.2c0,2.5-2.1,4.6-4.6,4.6c-2.5,0-4.6-2.1-4.6-4.6V487z"/>
	<path fill="#00ADEE" d="M28.8,473.2c-2.5,0-4.6,2.1-4.6,4.6v9.2c0,2.5-2.1,4.6-4.6,4.6c-2.5,0-4.6-2.1-4.6-4.6v-9.2
		c0-2.5-2.1-4.6-4.6-4.6c-2.5,0-4.6,2.1-4.6,4.6v9.2c0,2.5-2.1,4.6-4.6,4.6c-2.5,0-4.6-2.1-4.6-4.6v-9.2c0-2.5-2.1-4.6-4.6-4.6
		c-2.5,0-4.6,2.1-4.6,4.6v9.2c0,7.6,6.2,13.8,13.8,13.8c3.5,0,6.8-1.3,9.2-3.5c2.4,2.2,5.7,3.5,9.2,3.5c7.6,0,13.8-6.2,13.8-13.8
		v-9.2C33.5,475.3,31.4,473.2,28.8,473.2z"/>
	<g>
		<path fill="#00ADEE" d="M41.5,473.2c-2.5,0-4.6,2.1-4.6,4.6v18.5c0,2.5,2.1,4.6,4.6,4.6c2.5,0,4.6-2.1,4.6-4.6v-18.5
			C46.1,475.3,44.1,473.2,41.5,473.2z"/>
		<circle fill="#00ADEE" cx="41.5" cy="466.3" r="4.6"/>
	</g>
	<path fill="#00ADEE" d="M125.7,484.7c0,1.6-0.7,4.6-3.1,4.6c-1.8,0-15.2,0-15.2,0c0.5,2,2.3,3.5,4.5,3.5h9.8c2.2,0,4,1.8,4,4
		c0,2.2-1.8,4-4,4h-9.8c-7.6,0-13.8-6.2-13.8-15c0-7.7,6.2-12.7,13.8-12.7C119.5,473.2,125.7,478.4,125.7,484.7L125.7,484.7z
		 M116.5,483.6c0-2.1-2.1-3.8-4.6-3.8c-2.5,0-4.6,1.7-4.6,3.8H116.5z"/>
</g>
</svg>
