<?xml version="1.0" encoding="utf-8"?>
<!-- Generator: Adobe Illustrator 18.1.1, SVG Export Plug-In . SVG Version: 6.00 Build 0)  -->
<svg version="1.1"
	 id="svg3070" sodipodi:docname="New document 4" inkscape:version="0.48.0 r9654" xmlns:dc="http://purl.org/dc/elements/1.1/" xmlns:inkscape="http://www.inkscape.org/namespaces/inkscape" xmlns:cc="http://creativecommons.org/ns#" xmlns:svg="http://www.w3.org/2000/svg" xmlns:rdf="http://www.w3.org/1999/02/22-rdf-syntax-ns#" xmlns:sodipodi="http://sodipodi.sourceforge.net/DTD/sodipodi-0.dtd"
	 xmlns="http://www.w3.org/2000/svg" xmlns:xlink="http://www.w3.org/1999/xlink" x="0px" y="0px" viewBox="-134 441.5 202.6 79.5"
	 enable-background="new -134 441.5 202.6 79.5" xml:space="preserve">
<sodipodi:namedview  inkscape:window-maximized="1" inkscape:window-y="-8" inkscape:window-x="-8" inkscape:window-height="750" inkscape:window-width="1280" fit-margin-bottom="0" inkscape:current-layer="layer1" inkscape:pageshadow="2" inkscape:document-units="px" inkscape:pageopacity="0.0" fit-margin-right="0" inkscape:cx="142.93233" fit-margin-left="0" borderopacity="1.0" fit-margin-top="0" pagecolor="#ffffff" bordercolor="#666666" showgrid="false" inkscape:cy="33.703355" inkscape:zoom="2.8" id="base">
	</sodipodi:namedview>
<g>
	<path fill="#EC2027" d="M65.9,499.8c0,10.8-8.8,19.6-19.6,19.6h-77.4c-10.8,0-19.6-8.8-19.6-19.6V462c0-10.8,8.8-19.6,19.6-19.6
		h77.4c10.8,0,19.6,8.8,19.6,19.6V499.8z"/>
	<g>
		<defs>
			<filter id="Adobe_OpacityMaskFilter" filterUnits="userSpaceOnUse" x="25.3" y="445.8" width="36.6" height="24.2">
				<feFlood  style="flood-color:white;flood-opacity:1" result="back"/>
				<feBlend  in="SourceGraphic" in2="back" mode="normal"/>
			</filter>
		</defs>
		<mask maskUnits="userSpaceOnUse" x="25.3" y="445.8" width="36.6" height="24.2" id="SVGID_1_">
			<g filter="url(#Adobe_OpacityMaskFilter)">
				<image overflow="visible" width="41" height="30" xlink:href="B1124C06A92FB02E.jpg"  transform="matrix(1 0 0 1 23 443)">
				</image>
			</g>
		</mask>
		<g mask="url(#SVGID_1_)">
			<linearGradient id="SVGID_2_" gradientUnits="userSpaceOnUse" x1="50.6221" y1="446.0466" x2="43.0361" y2="459.186">
				<stop  offset="0" style="stop-color:#FFFFFF"/>
				<stop  offset="9.311976e-02" style="stop-color:#FEF5F5"/>
				<stop  offset="0.2518" style="stop-color:#FCDADB"/>
				<stop  offset="0.4568" style="stop-color:#F9AEB1"/>
				<stop  offset="0.7002" style="stop-color:#F47176"/>
				<stop  offset="0.9733" style="stop-color:#EE242C"/>
				<stop  offset="1" style="stop-color:#ED1C24"/>
			</linearGradient>
			<path fill="url(#SVGID_2_)" d="M25.3,446.5c0,0,35.6-4.9,36.6,10.8V470L25.3,446.5z"/>
		</g>
	</g>
</g>
<g>
	<path fill="#FFFFFF" d="M-31.2,503.8v-40.8h-8.1v-8.1h23.2v8.1h-8.1v40.8H-31.2z"/>
	<path fill="#FFFFFF" d="M5.7,467v36.7h-6.4v-3.7c-1.4,3.1-3.3,4.6-5.9,4.6c-4.2,0-6.3-3-6.3-8.9V467h6.3v24c0,2,0.1,3.4,0.3,4.2
		c0.4,1.5,1.2,2.2,2.4,2.2c1.3,0,2.2-0.8,2.6-2.4c0.2-0.9,0.4-2.4,0.4-4.6V467H5.7z"/>
	<path fill="#FFFFFF" d="M11.4,503.8v-48.9h6.5v15.3c1.1-2.7,2.9-4.1,5.6-4.1c3.3,0,5.5,2.4,6.5,7.1c0.5,2.4,0.8,6.5,0.8,12.4
		c0,5.7-0.3,9.8-0.9,12.3c-1.1,4.6-3.3,6.9-6.6,6.9c-2.8,0-4.7-1.6-5.7-4.8v3.8H11.4z M21.2,473.2c-1.8,0-2.9,1.9-3.3,5.7
		c-0.1,0.8-0.1,3.5-0.1,8.1c0,3.6,0.1,5.8,0.2,6.7c0.4,2.7,1.5,4.1,3.2,4.1c1.6,0,2.6-1.7,2.9-5c0.1-0.7,0.1-3.1,0.1-7.2
		c0-4.3,0-6.7-0.1-7.3C23.7,474.9,22.8,473.2,21.2,473.2z"/>
	<path fill="#FFFFFF" d="M48.2,491.2h6.2c0,0.2,0,0.4,0,0.7c0,0.3,0,0.5,0,0.7c0,4.2-0.8,7.3-2.3,9.3c-1.6,1.9-4,2.9-7.3,2.9
		c-3.4,0-5.9-1.2-7.4-3.5c-1.2-1.9-1.9-4.6-2.3-8.2c-0.1-1.6-0.2-4.5-0.2-8.9c0-3.5,0.1-6,0.2-7.5c0.3-3,0.9-5.3,1.9-6.9
		c1.6-2.6,4.3-3.8,7.9-3.8c3.5,0,6,1.4,7.6,4.2c1.3,2.2,2,6.8,2,13.6v2.8H41.7c0,0.4-0.1,1.2-0.1,2.4c0,2.7,0.1,4.7,0.3,5.8
		c0.5,2.4,1.5,3.6,2.9,3.6C47.1,498.4,48.2,496,48.2,491.2z M41.6,480.7h6.3v-1.6c0-2.1-0.1-3.6-0.4-4.5c-0.5-1.4-1.4-2.1-2.8-2.1
		c-1.2,0-2,0.5-2.5,1.5c-0.6,1.2-0.8,2.9-0.7,5.2l0,0.5C41.6,480.1,41.6,480.4,41.6,480.7z"/>
</g>
<g>
	<path d="M-122,504v-20.9l-9.9-28.3h7.8l5.7,18.5l5.6-18.5h7.6l-9.7,28.3V504H-122z"/>
	<path d="M-102.7,485.6c0-6.4,0.5-10.9,1.4-13.5c1.4-4,4.3-5.9,8.5-5.9s7.1,2,8.6,5.9c1,2.6,1.4,7.1,1.4,13.5
		c0,6.4-0.5,10.9-1.4,13.5c-1.5,3.9-4.3,5.9-8.6,5.9s-7.1-2-8.5-5.9C-102.2,496.4-102.7,491.9-102.7,485.6z M-95.9,486.1
		c0,4.6,0,7.1,0.1,7.5c0.3,3.3,1.4,4.9,3.1,4.9c1.7,0,2.8-1.4,3.2-4.2c0.1-0.6,0.1-2.9,0.1-6.9v-3.6c0-3.7,0-6-0.1-6.8
		c-0.4-2.8-1.4-4.2-3.1-4.2c-1.6,0-2.6,1.2-3.1,3.7c-0.1,0.8-0.2,2.9-0.2,6.2V486.1z"/>
	<path d="M-59.1,467.1V504h-6.5v-3.7c-1.4,3.1-3.4,4.7-6,4.7c-4.2,0-6.3-3-6.3-8.9v-29h6.4v24.1c0,2,0.1,3.4,0.3,4.2
		c0.4,1.5,1.2,2.2,2.4,2.2c1.3,0,2.2-0.8,2.6-2.4c0.2-0.9,0.4-2.4,0.4-4.6v-23.6H-59.1z"/>
</g>
</svg>
