<?xml version="1.0" encoding="utf-8"?>
<!-- Generator: Adobe Illustrator 16.0.0, SVG Export Plug-In . SVG Version: 6.00 Build 0)  -->
<!DOCTYPE svg PUBLIC "-//W3C//DTD SVG 1.1//EN" "http://www.w3.org/Graphics/SVG/1.1/DTD/svg11.dtd">
<svg version="1.1" id="the-logo" xmlns="http://www.w3.org/2000/svg" xmlns:xlink="http://www.w3.org/1999/xlink" x="0px" y="0px"
	 width="126px" height="35px" viewBox="0 0 126 35" enable-background="new 0 0 126 35" xml:space="preserve">
<g>
	<g>
		<path fill="#DE544B" d="M34.577,22.985V11.524h0.799v6.367h0.033l5.543-6.367h0.943l-3.65,4.245l4.151,7.216h-0.917l-3.778-6.605
			l-2.325,2.658v3.947H34.577z"/>
		<path fill="#DE544B" d="M43.033,17.213c0-1.783,0.438-3.21,1.316-4.283c0.876-1.072,2.017-1.609,3.42-1.609
			c1.392,0,2.525,0.537,3.4,1.609c0.875,1.073,1.312,2.5,1.312,4.283c0,1.794-0.439,3.24-1.317,4.338s-2.01,1.647-3.4,1.647
			s-2.525-0.548-3.408-1.644C43.475,20.46,43.033,19.012,43.033,17.213z M43.873,17.213c0,1.59,0.357,2.863,1.069,3.819
			c0.714,0.957,1.656,1.436,2.828,1.436c1.16,0,2.095-0.479,2.807-1.436c0.71-0.956,1.064-2.229,1.064-3.819
			c0-1.579-0.355-2.834-1.07-3.765c-0.712-0.931-1.646-1.397-2.801-1.397c-1.171,0-2.113,0.468-2.828,1.401
			C44.23,14.385,43.873,15.639,43.873,17.213z"/>
		<path fill="#DE544B" d="M54.995,22.985V11.524h0.831l4.814,8.091l1.307,2.275h0.069c-0.069-1.483-0.103-2.595-0.103-3.336v-7.03
			h0.748v11.461h-0.842l-4.812-8.082L55.7,12.62h-0.069c0.069,1.46,0.104,2.544,0.111,3.251v7.114H54.995z"/>
		<path fill="#DE544B" d="M65.037,21.475l0.501-0.561c0.917,1.03,2.043,1.548,3.379,1.554c0.861,0,1.552-0.212,2.072-0.638
			c0.521-0.424,0.78-0.978,0.78-1.663c0-0.64-0.168-1.12-0.506-1.443c-0.336-0.322-0.858-0.639-1.565-0.951l-1.739-0.79
			c-0.301-0.142-0.564-0.277-0.791-0.407c-0.226-0.13-0.467-0.306-0.721-0.526c-0.254-0.221-0.452-0.494-0.591-0.82
			c-0.139-0.325-0.207-0.688-0.207-1.09c0-0.821,0.315-1.496,0.946-2.024c0.631-0.53,1.422-0.794,2.372-0.794
			c1.285,0,2.353,0.458,3.201,1.375l-0.476,0.535c-0.73-0.787-1.638-1.181-2.726-1.181c-0.764,0-1.374,0.186-1.833,0.557
			c-0.459,0.371-0.688,0.867-0.688,1.49c0,0.311,0.055,0.59,0.166,0.836c0.109,0.246,0.287,0.459,0.53,0.637
			c0.242,0.178,0.441,0.312,0.599,0.399c0.154,0.088,0.383,0.203,0.684,0.344l1.739,0.764c0.764,0.345,1.355,0.739,1.774,1.18
			s0.628,1.062,0.628,1.859c0,0.894-0.337,1.631-1.01,2.211c-0.674,0.58-1.559,0.871-2.657,0.871
			C67.354,23.198,66.068,22.623,65.037,21.475z"/>
		<path fill="#DE544B" d="M73.315,12.221v-0.696h8.099v0.696h-3.642v10.765h-0.799V12.221H73.315z"/>
		<path fill="#DE544B" d="M83.494,22.985V11.524h3.272c2.516,0,3.773,1.014,3.773,3.04c0,0.894-0.262,1.604-0.783,2.13
			c-0.521,0.526-1.244,0.852-2.162,0.976l3.149,5.315H89.82l-3.101-5.263h-2.428v5.263H83.494z M84.292,17.06h2.258
			c2.101,0,3.149-0.832,3.149-2.495c0-0.829-0.262-1.427-0.784-1.794c-0.524-0.366-1.312-0.55-2.365-0.55h-2.258V17.06z"/>
		<path fill="#DE544B" d="M93.044,18.588v-7.063h0.798v6.979c0,1.415,0.284,2.43,0.852,3.043c0.565,0.615,1.303,0.922,2.209,0.922
			c0.93,0,1.683-0.309,2.258-0.926s0.862-1.63,0.862-3.039v-6.979h0.765v7.063c0,1.647-0.365,2.827-1.096,3.54
			c-0.731,0.713-1.66,1.07-2.789,1.07c-1.127,0-2.053-0.354-2.774-1.062C93.405,21.429,93.044,20.246,93.044,18.588z"/>
		<path fill="#DE544B" d="M104.581,21.571c-0.889-1.083-1.332-2.529-1.332-4.337s0.449-3.246,1.35-4.313
			c0.899-1.066,2.086-1.6,3.558-1.6c1.205,0,2.194,0.458,2.971,1.375l-0.467,0.518c-0.696-0.776-1.531-1.164-2.504-1.164
			c-1.25,0-2.242,0.468-2.973,1.401c-0.729,0.934-1.094,2.194-1.094,3.778c0,1.602,0.359,2.875,1.077,3.82
			c0.72,0.945,1.692,1.418,2.921,1.418c1.104,0,2.072-0.47,2.903-1.409l0.467,0.501c-0.939,1.092-2.073,1.639-3.404,1.639
			C106.627,23.198,105.471,22.655,104.581,21.571z"/>
		<path fill="#DE544B" d="M112.121,12.221v-0.696h8.099v0.696h-3.642v10.765h-0.798V12.221H112.121z"/>
	</g>
	<g>
		<path fill="#A03937" d="M7.019,7.453H24.18L7.019,27.065V7.453z"/>
		<path fill="#DE544B" d="M7.019,7.453h18.387l1.226,4.903L7.019,7.453z M7.019,12.356l19.613,14.709H7.019V12.356z"/>
	</g>
</g>
</svg>
