<?xml version="1.0" encoding="utf-8"?>
<!-- Generator: Adobe Illustrator 16.0.0, SVG Export Plug-In . SVG Version: 6.00 Build 0)  -->
<!DOCTYPE svg PUBLIC "-//W3C//DTD SVG 1.1//EN" "http://www.w3.org/Graphics/SVG/1.1/DTD/svg11.dtd">
<svg version="1.1" id="Layer_1" xmlns="http://www.w3.org/2000/svg" xmlns:xlink="http://www.w3.org/1999/xlink" x="0px" y="0px"
	 width="226px" height="326px" viewBox="0 0 226 326" enable-background="new 0 0 226 326" xml:space="preserve">
<g>
	<path fill="#DE544B" d="M215.775,235.111c-3.237-6.225-5.478-12.448-5.478-28.63c0-16.184,0-93.278,0-93.278l0,0v-0.002
		c0-53.048-43.006-96.057-96.057-96.057c-53.053,0-96.06,43.009-96.06,96.057v0.002l0,0v78.339c0,0-1.991,14.606-5.975,25.894
		c-3.983,11.288-11.95,24.565-11.95,24.565s10.622-2.658,11.617-4.649c0.996-1.991,0.249,19.419,3.236,30.622
		c2.988,11.204,5.229,14.439,5.229,14.439s2.739-6.97,5.229-8.961c2.489-1.992,2.489-1.992,2.489-1.992s1.743,16.93,7.469,24.647
		c5.727,7.718,9.959,10.207,9.959,10.207s-1.245-8.713,2.241-15.686c3.485-6.97,9.709-8.962,9.709-8.962s-0.746,12.947,1.743,17.428
		s9.709,10.207,11.203,13.942c1.494,3.732,2.49,5.727,2.987,8.464c0.498,2.739,0,4.232,0,4.232s4.979-4.73,5.727-10.457
		c0.747-5.727,0-10.207,0-10.207s3.734,6.722,9.461,11.7c5.726,4.981,12.198,6.475,12.198,6.475s-2.987-6.723-2.24-11.453
		s5.976-9.461,5.976-9.461s5.478,1.743,5.726,6.722c0.249,4.98-1.992,9.462-1.992,9.462s11.453-2.739,15.685-11.951
		c4.233-9.211,4.233-9.211,4.233-9.211s7.718,3.236,8.216,11.452c0.497,8.216-2.49,13.194-2.49,13.194s17.677-12.198,20.913-18.671
		c3.236-6.474,3.236-9.213,3.236-9.213s2.988,6.225,8.714,11.453s11.95,5.479,11.95,5.479s-2.987-7.471-3.236-11.951
		s0.996-14.44,6.971-16.93s10.954,1.494,12.199,3.485c1.244,1.991,1.493,6.473,1.493,6.473s8.714-4.481,11.204-15.187
		c2.489-10.705,1.742-32.614,1.742-32.614s6.972,1.493,10.208,0.995s6.224-3.235,6.224-3.235S219.012,241.336,215.775,235.111z"/>
	<g>
		<path fill="#F6921E" d="M107.179,8.82c0,4.361,3.536,7.897,7.899,7.897c4.358,0,7.896-3.536,7.896-7.897
			c0-4.36-3.537-7.896-7.896-7.896C110.715,0.923,107.179,4.459,107.179,8.82z"/>
		<path fill="#F6921E" d="M196.021,108.335c0,7.733-35.476,14.004-79.238,14.004c-43.76,0-79.236-6.271-79.236-14.004
			c0-7.737,35.477-14.008,79.236-14.008C160.546,94.327,196.021,100.598,196.021,108.335z"/>
		<path fill="#FAAF40" d="M186.686,44.702h-2.146c0,0-23.818-35.598-70.433-35.868V8.82c-0.09,0-0.174,0.008-0.263,0.008
			c-0.09,0-0.174-0.008-0.264-0.008v0.014C66.971,9.104,43.15,44.702,43.15,44.702h-1.603c0,0-27.611,21.613-28.413,63.633h100.579
			h0.805h100.58C214.299,66.315,186.686,44.702,186.686,44.702z"/>
		<path fill="#F6921E" d="M20.203,97.394h6.402c0,0,6.94-22.412,13.343-29.349c6.401-6.936,13.873-16.541,13.873-16.541
			S21.272,81.92,20.203,97.394z"/>
		<path fill="#F6921E" d="M207.627,97.394h-6.402c0,0-6.938-22.412-13.344-29.349c-6.402-6.936-13.871-16.541-13.871-16.541
			S206.56,81.92,207.627,97.394z"/>
		<path fill="#F6921E" d="M38.744,97.394h12.908c0,0-1.441-9.603,8.967-22.945c10.409-13.343,14.145-16.544,14.145-16.544
			S40.365,77.655,38.744,97.394z"/>
		<path fill="#F6921E" d="M184.416,94.195h-12.908c0,0,1.443-9.603-8.966-22.944c-10.41-13.343-14.145-16.546-14.145-16.546
			S182.795,74.455,184.416,94.195z"/>
	</g>
	<g>
		<path fill="#EFEDED" d="M41.528,140.739v3.466h24.865c-0.008,0.097-0.031,0.188-0.031,0.288c0,2.074,1.681,3.753,3.754,3.753
			c2.075,0,3.756-1.68,3.756-3.753c0-0.1-0.021-0.191-0.029-0.288h10.04v-3.466H41.528z"/>
		<path fill="#EFEDED" d="M186.688,140.739h-42.354v3.466h8.307c-0.008,0.097-0.029,0.188-0.029,0.288
			c0,2.074,1.681,3.753,3.756,3.753c2.071,0,3.752-1.68,3.752-3.753c0-0.1-0.021-0.191-0.029-0.288h26.599V140.739z"/>
	</g>
	<g>
		<polygon fill="#FFFFFF" points="93.238,203.333 93.238,209.526 95.189,209.526 95.189,203.88 95.376,203.88 95.376,209.526 
			98.718,209.526 98.718,203.88 98.905,203.88 98.905,209.526 102.248,209.526 102.248,203.88 102.435,203.88 102.435,209.526 
			105.776,209.526 105.776,203.88 105.963,203.88 105.963,209.526 109.307,209.526 109.307,203.88 109.494,203.88 109.494,209.526 
			112.834,209.526 112.834,203.88 113.021,203.88 113.021,209.526 116.363,209.526 116.363,203.88 116.55,203.88 116.55,209.526 
			119.894,209.526 119.894,203.88 120.08,203.88 120.08,209.526 123.421,209.526 123.421,203.88 123.608,203.88 123.608,209.526 
			126.952,209.526 126.952,203.88 127.139,203.88 127.139,209.526 130.479,209.526 130.479,203.88 130.667,203.88 130.667,209.526 
			132.615,209.526 132.615,203.333 		"/>
		<g>
			<path fill="#FFFFFF" d="M126.859,218.394v-0.674h-3.344v3.2C124.718,220.19,125.835,219.346,126.859,218.394z"/>
			<path fill="#FFFFFF" d="M102.154,220.877v-3.156h-3.344v0.606C99.835,219.286,100.952,220.138,102.154,220.877z"/>
			<path fill="#FFFFFF" d="M123.328,221.033v-3.312h-3.342v4.901C121.154,222.192,122.27,221.659,123.328,221.033z"/>
			<path fill="#FFFFFF" d="M105.684,222.596v-4.876h-3.342v3.271C103.397,221.622,104.514,222.159,105.684,222.596z"/>
			<path fill="#FFFFFF" d="M127.045,218.224c0.141-0.134,0.29-0.254,0.426-0.392v-0.112h-0.426V218.224z"/>
			<path fill="#FFFFFF" d="M119.8,217.72h-3.344v5.649h-0.186v-5.649h-3.342v5.649h-0.188v-5.649h-3.342v5.649h-0.187v-5.649h-3.344
				v4.944c2.189,0.794,4.538,1.249,7.001,1.249c2.436,0,4.761-0.445,6.93-1.223V217.72z"/>
			<path fill="#FFFFFF" d="M98.624,217.72h-0.365v0.099c0.117,0.12,0.247,0.223,0.365,0.336V217.72z"/>
		</g>
		<g>
			<path fill="#EFEDED" d="M112.87,224.91c-11.898,0-21.576-9.681-21.576-21.577v-0.995h43.154v0.995
				C134.448,215.229,124.768,224.91,112.87,224.91z M93.311,204.331c0.521,10.335,9.095,18.587,19.56,18.587
				c10.466,0,19.039-8.252,19.561-18.587H93.311z"/>
		</g>
	</g>
	<path fill="#A03937" d="M171.755,187.552c-13.802-22.574-58.091-22.239-58.091-22.239s-0.278,0.928-0.579,2.59
		c-0.299-1.662-0.577-2.59-0.577-2.59s-44.29-0.335-58.092,22.239c-13.802,22.578-13.941,51.783-13.941,51.783
		s33.525,1.66,56.762-22.903c10.141-10.719,14.338-21.819,15.849-30.922c1.511,9.103,5.707,20.203,15.849,30.922
		c23.237,24.563,56.764,22.903,56.764,22.903S185.558,210.131,171.755,187.552z"/>
	<circle fill="#EFEDED" cx="113.039" cy="164.857" r="11.154"/>
	<rect x="91.294" y="267.148" fill="#A03937" width="1.983" height="23.473"/>
	<rect x="165.146" y="265.164" fill="#A03937" width="1.983" height="23.474"/>
	<rect x="65.629" y="249.13" fill="#A03937" width="1.984" height="23.474"/>
	<rect x="134.448" y="251.444" fill="#A03937" width="1.983" height="23.473"/>
	<rect x="115.793" y="265.164" fill="#A03937" width="1.983" height="23.474"/>
	<rect x="152.252" y="256.823" fill="#A03937" width="1.983" height="23.474"/>
	<rect x="180.024" y="254.915" fill="#A03937" width="1.983" height="23.474"/>
	<rect x="126.267" y="270.95" fill="#A03937" width="1.983" height="23.473"/>
	<rect x="101.35" y="274.917" fill="#A03937" width="1.983" height="23.474"/>
	<rect x="51.331" y="256.823" fill="#A03937" width="1.983" height="23.474"/>
	<rect x="31.493" y="239.707" fill="#A03937" width="1.984" height="23.474"/>
	<rect x="78.854" y="249.13" fill="#A03937" width="1.983" height="23.474"/>
	<rect x="31.493" y="204.91" fill="#A03937" width="1.984" height="23.474"/>
	<rect x="198.869" y="233.184" fill="#A03937" width="1.983" height="23.474"/>
	<rect x="19.344" y="241.691" fill="#A03937" width="1.983" height="23.473"/>
	<rect x="198.869" y="201.887" fill="#A03937" width="1.983" height="23.474"/>
	<rect x="40.475" y="256.658" fill="#A03937" width="1.983" height="11.902"/>
	<rect x="101.35" y="253.427" fill="#A03937" width="1.983" height="11.902"/>
	<rect x="134.448" y="286.654" fill="#A03937" width="1.983" height="11.902"/>
	<rect x="173.081" y="272.933" fill="#A03937" width="1.983" height="11.902"/>
	<rect x="25.295" y="216.646" fill="#A03937" width="1.983" height="11.902"/>
	<rect x="76.871" y="282.686" fill="#A03937" width="1.983" height="11.902"/>
	<rect x="109.693" y="261.197" fill="#A03937" width="1.983" height="11.902"/>
	<rect x="143.341" y="278.885" fill="#A03937" width="1.983" height="11.902"/>
	<rect x="173.081" y="254.915" fill="#A03937" width="1.983" height="11.902"/>
	<rect x="188.483" y="228.549" fill="#A03937" width="1.984" height="11.902"/>
	<rect x="198.869" y="272.603" fill="#A03937" width="1.983" height="11.902"/>
	<rect x="188.483" y="266.652" fill="#A03937" width="1.984" height="11.902"/>
	<rect x="115.793" y="295.099" fill="#A03937" width="1.983" height="11.902"/>
	<rect x="90.302" y="301.051" fill="#A03937" width="1.983" height="11.901"/>
	<rect x="66.621" y="289.148" fill="#A03937" width="1.983" height="11.902"/>
	<rect x="38.491" y="283.197" fill="#A03937" width="1.983" height="11.902"/>
	<rect x="170.077" y="290.621" fill="#A03937" width="1.983" height="11.902"/>
	<rect x="115.793" y="246.979" fill="#A03937" width="1.983" height="5.951"/>
	<rect x="65.629" y="278.222" fill="#A03937" width="1.984" height="5.951"/>
	<rect x="31.493" y="270.95" fill="#A03937" width="1.984" height="5.951"/>
	<rect x="19.344" y="228.549" fill="#A03937" width="1.983" height="5.951"/>
	<rect x="25.295" y="194.411" fill="#A03937" width="1.983" height="5.951"/>
	<rect x="44.141" y="278.222" fill="#A03937" width="1.983" height="5.951"/>
	<rect x="143.341" y="301.051" fill="#A03937" width="1.983" height="5.951"/>
	<rect x="109.693" y="285.662" fill="#A03937" width="1.983" height="5.951"/>
	<rect x="152.252" y="288.637" fill="#A03937" width="1.983" height="5.951"/>
	<rect x="143.341" y="263.18" fill="#A03937" width="1.983" height="5.951"/>
	<rect x="126.267" y="256.823" fill="#A03937" width="1.983" height="5.951"/>
	<rect x="188.483" y="250.452" fill="#A03937" width="1.984" height="5.951"/>
	<rect x="190.818" y="216.803" fill="#A03937" width="1.983" height="5.951"/>
	<rect x="210.771" y="236.384" fill="#A03937" width="1.983" height="5.951"/>
	<rect x="205.644" y="254.342" fill="#A03937" width="1.983" height="5.951"/>
	<rect x="158.699" y="265.585" fill="#A03937" width="1.983" height="5.951"/>
	<rect x="164.154" y="249.955" fill="#A03937" width="1.983" height="5.951"/>
	<rect x="198.869" y="262.188" fill="#A03937" width="1.983" height="5.951"/>
	<g>
		<path fill="#EFEDED" d="M96.506,55.652h29.014L96.506,88.811V55.652z"/>
		<path fill="#FFFFFF" d="M96.506,55.652h31.087l2.072,8.29L96.506,55.652z M96.506,63.942l33.159,24.869H96.506V63.942z"/>
	</g>
</g>
</svg>
