<?xml version="1.0" encoding="utf-8"?>
<!-- Generator: Adobe Illustrator 18.1.1, SVG Export Plug-In . SVG Version: 6.00 Build 0)  -->
<svg version="1.1" id="logo" width="188px" height="126px" xmlns="http://www.w3.org/2000/svg" xmlns:xlink="http://www.w3.org/1999/xlink" x="0px" y="0px"
	 viewBox="-567.8 385 150 100" enable-background="new -567.8 385 150 100" xml:space="preserve">
<g>
	<path fill="#FFFFFF" d="M-559.1,448.5v7.5h-1.8v-3.8l-1.8,3.8h-0.8l-1.8-3.8v3.8h-1.8v-7.4h1.8v0.1l2.1,4.2l2.2-4.2l0,0l0,0H-559.1
		z"/>
	<path fill="#FFFFFF" d="M-551.7,455h-3.7l-0.5,1h-2l3.7-7.5h1.4l3.6,7.5h-2L-551.7,455z M-552.5,453.5l-1.1-2.4l-1.1,2.4H-552.5z"
		/>
	<path fill="#FFFFFF" d="M-543,450.1h-2.9v5.9h-1.8v-5.9h-2.9v-1.6h7.5L-543,450.1L-543,450.1z"/>
	<path fill="#FFFFFF" d="M-534.6,450.1h-2.9v5.9h-1.8v-5.9h-2.8v-1.6h7.5V450.1z"/>
	<path fill="#FFFFFF" d="M-528.7,453.7h2c0,0,0.1,1,1.4,1c0.7,0,1.4-0.4,1.4-0.9c0-1-1.8-1-2.2-1.1c-0.8-0.2-2.3-0.6-2.3-2
		c0-1.3,1.4-2.4,3.1-2.4c2.1,0,3.1,1.1,3.1,2.1h-1.9c0-0.2-0.3-0.6-1.3-0.6c-0.6,0-1.2,0.4-1.2,0.9c0,0.6,1.2,0.6,1.6,0.7
		c1.1,0.2,3,0.4,3,2.4c0,1.3-1.5,2.4-3.3,2.4C-527.6,456.2-528.7,454.7-528.7,453.7z"/>
	<path fill="#FFFFFF" d="M-518.8,448.5v7.5h-1.8v-7.5H-518.8z"/>
	<path fill="#FFFFFF" d="M-510.7,454.2v1.8h-6.5v-7.5h1.8v5.7C-515.3,454.2-510.7,454.2-510.7,454.2z"/>
	<path fill="#FFFFFF" d="M-503.4,448.5l-3.2,7.5h-1.8l-3.2-7.5h2.1l2.1,4.6l2.1-4.6H-503.4z"/>
	<path fill="#FFFFFF" d="M-501.1,450.1v1.3h3v1.6h-3v1.3h3.8v1.6h-5.6v-7.4h5.6v1.6H-501.1z"/>
	<path fill="#FFFFFF" d="M-491.4,456l-1.2-1.9h-1.3v1.9h-1.9v-7.5c0,0,2.8,0,3.7,0c1.5,0,2.7,1.3,2.7,3c0,1.1-0.5,1.9-1.3,2.3
		l1.6,2.3L-491.4,456L-491.4,456z M-493.9,452.5h1.5c0.6,0,1.1-0.4,1.1-1c0-0.6-0.5-1.1-1.1-1.1h-1.5V452.5z"/>
	<path fill="#FFFFFF" d="M-483.9,453.6h-4.2V452h4.2V453.6z"/>
	<path fill="#FFFFFF" d="M-475,448.5l-3.2,7.5h-1.8l-3.2-7.5h2.1l2.1,4.6l2.1-4.6H-475z"/>
	<path fill="#FFFFFF" d="M-470.3,455h-3.6l-0.5,1h-2l3.7-7.5h1.4l3.6,7.5h-2L-470.3,455z M-471,453.5l-1.1-2.4l-1.1,2.4H-471z"/>
	<path fill="#FFFFFF" d="M-460.4,454.2v1.8h-6.5v-7.5h1.8v5.7C-465,454.2-460.4,454.2-460.4,454.2z"/>
	<path fill="#FFFFFF" d="M-452.2,454.2v1.8h-6.5v-7.5h1.8v5.7C-456.9,454.2-452.2,454.2-452.2,454.2z"/>
	<path fill="#FFFFFF" d="M-444.8,455h-3.6l-0.5,1h-2l3.7-7.5h1.4l3.6,7.5h-2L-444.8,455z M-445.5,453.5l-1.1-2.4l-1.1,2.4H-445.5z"
		/>
	<path fill="#FFFFFF" d="M-433.9,448.5v7.5h-1.8l-3.7-4.5v4.5h-1.8v-7.5h1.8l3.7,4.7v-4.7H-433.9z"/>
	<path fill="#FFFFFF" d="M-425.5,454.6c-0.7,1-1.9,1.6-3.2,1.6c-2.2,0-3.9-1.8-3.9-3.9s1.8-3.9,3.9-3.9c1.3,0,2.4,0.6,3.2,1.6
		l-1.4,0.8c-0.5-0.5-1.1-0.7-1.8-0.7c-1.2,0-2.2,1-2.2,2.2s1,2.2,2.2,2.2c0.7,0,1.2-0.3,1.8-0.7L-425.5,454.6z"/>
	<path fill="#FFFFFF" d="M-422.4,450.1v1.3h3v1.6h-3v1.3h3.8v1.6h-5.6v-7.4h5.6v1.6H-422.4z"/>
	<g>
		<path fill="#FFFFFF" d="M-485.2,437.2h-27.6l13.8-23.3L-485.2,437.2z M-508.6,434.8h19.1l-9.5-16.1L-508.6,434.8z"/>
	</g>
	<g>
		<polygon fill="#FFFFFF" points="-487.4,418.6 -477.8,434.8 -486.7,434.8 -485.2,437.2 -473.6,437.2 -487.4,413.9 -493.2,423.7 
			-491.8,426.1 		"/>
	</g>
	<g>
		<g>
			<g>
				<polygon fill="#FFFFFF" points="-487.4,418.6 -487.4,413.9 -493.2,423.7 -491.8,426.1 				"/>
			</g>
		</g>
		<g>
			<polygon fill="#FFFFFF" points="-491.8,426.1 -499,413.9 -499,418.6 -493.2,428.5 			"/>
		</g>
	</g>
</g>
</svg>
