<svg version="1.1" id="Layer_1" width="195px" height="71px" xmlns="http://www.w3.org/2000/svg" xmlns:xlink="http://www.w3.org/1999/xlink" x="0px" y="0px"
	 viewBox="0 0 311.8 113.4" enable-background="new 0 0 311.8 113.4" xml:space="preserve">
<g>
	<path fill="#575756" d="M30.9,82.1v14.1h-3.4V89l-3.3,7.2h-1.5L19.4,89v7.1H16V82.1h3.4v0.1l4,7.9l4.1-8v0v0H30.9z"/>
	<path fill="#575756" d="M44.9,94.3H38l-1,1.9h-3.8l7-14.1h2.6l6.7,14.1h-3.8L44.9,94.3z M43.5,91.5L41.4,87l-2,4.5H43.5z"/>
	<path fill="#575756" d="M61.4,85.1H56v11.1h-3.4V85.1h-5.4v-3h14.1V85.1z"/>
	<path fill="#575756" d="M77.1,85.1h-5.4v11.1h-3.4V85.1H63v-3h14.1V85.1z"/>
	<path fill="#575756" d="M88.3,91.8H92c0,0,0.2,1.9,2.6,1.9c1.3,0,2.6-0.8,2.6-1.7c0-1.8-3.3-1.9-4.2-2.1c-1.6-0.3-4.4-1.1-4.4-3.7
		c0-2.5,2.7-4.5,5.9-4.5c4,0,5.9,2,5.9,3.9h-3.5c0-0.3-0.6-1.1-2.4-1.1c-1.2,0-2.3,0.8-2.3,1.7c0,1.1,2.2,1.1,3,1.3
		c2,0.4,5.7,0.8,5.7,4.6c0,2.4-2.9,4.5-6.2,4.5C90.3,96.6,88.3,93.7,88.3,91.8z"/>
	<path fill="#575756" d="M107,82.1v14.1h-3.4V82.1H107z"/>
	<path fill="#575756" d="M122.3,92.8v3.4h-12.2V82.1h3.4v10.7H122.3z"/>
	<path fill="#575756" d="M135.9,82.1l-6,14.1h-3.4l-6.1-14.1h3.9l3.9,8.6l3.9-8.6H135.9z"/>
	<path fill="#575756" d="M140.4,85.1v2.5h5.7v3h-5.7v2.5h7.2v3h-10.6V82.1h10.6v3H140.4z"/>
	<path fill="#575756" d="M158.6,96.2l-2.3-3.5h-2.5v3.5h-3.5V82.1c0,0,5.2,0,6.9,0c2.9,0,5.1,2.5,5.1,5.6c0,2-1,3.5-2.5,4.3l3.1,4.3
		H158.6z M153.8,89.6h2.9c1.1,0,2.1-0.8,2.1-1.9c0-1.2-0.9-2.1-2.1-2.1h-2.9V89.6z"/>
	<path fill="#575756" d="M172.8,91.6h-8v-3h8V91.6z"/>
	<path fill="#575756" d="M189.5,82.1l-6,14.1h-3.4l-6.1-14.1h3.9l3.9,8.6l3.9-8.6H189.5z"/>
	<path fill="#575756" d="M198.3,94.3h-6.8l-1,1.9h-3.8l7-14.1h2.6l6.7,14.1h-3.8L198.3,94.3z M197,91.5l-2.1-4.5l-2,4.5H197z"/>
	<path fill="#575756" d="M217.1,92.8v3.4h-12.2V82.1h3.4v10.7H217.1z"/>
	<path fill="#575756" d="M232.4,92.8v3.4h-12.2V82.1h3.4v10.7H232.4z"/>
	<path fill="#575756" d="M246.5,94.3h-6.8l-1,1.9h-3.8l7-14.1h2.6l6.7,14.1h-3.8L246.5,94.3z M245.2,91.5l-2.1-4.5l-2,4.5H245.2z"/>
	<path fill="#575756" d="M266.9,82.1v14.1h-3.4l-7-8.4v8.4h-3.4V82.1h3.4l7,8.8v-8.8H266.9z"/>
	<path fill="#575756" d="M282.8,93.5c-1.3,1.8-3.5,3-6,3c-4.1,0-7.4-3.3-7.4-7.4c0-4.1,3.3-7.4,7.4-7.4c2.5,0,4.6,1.2,6,3l-2.6,1.6
		c-1-0.9-2-1.4-3.4-1.4c-2.3,0-4.2,1.9-4.2,4.2c0,2.3,1.9,4.2,4.2,4.2c1.4,0,2.3-0.5,3.4-1.4L282.8,93.5z"/>
	<path fill="#575756" d="M288.6,85.1v2.5h5.7v3h-5.7v2.5h7.2v3h-10.6V82.1h10.6v3H288.6z"/>
	<g>
		<path fill="#0E78B8" d="M170.2,60.7l-52,0l26-43.9L170.2,60.7z M126.2,56.2l36,0l-18-30.4L126.2,56.2z"/>
	</g>
	<g>
		<polygon fill="#77C9DA" points="166.2,25.8 184.2,56.2 167.5,56.2 170.2,60.7 192.2,60.7 166.2,16.8 155.2,35.4 157.9,39.9 		"/>
	</g>
	<g>
		<g>
			<g>
				<polygon fill="#DADADA" points="166.2,25.8 166.2,16.8 155.2,35.4 157.9,39.9 				"/>
			</g>
		</g>
		<g>
			<polygon fill="#A9A9A8" points="157.9,39.9 144.2,16.8 144.2,25.8 155.2,44.3 			"/>
		</g>
	</g>
</g>
</svg>
